<svg width="387" height="540" viewBox="0 0 387 540" fill="none" xmlns="http://www.w3.org/2000/svg">
<g filter="url(#filter0_d_81_3)">
<path d="M341.011 302.852L136.641 302.852C134.068 302.849 131.601 301.826 129.781 300.006C127.962 298.187 126.939 295.72 126.936 293.147L126.936 15.7049C126.938 13.132 127.962 10.6652 129.781 8.84583C131.601 7.02646 134.067 6.00306 136.64 6.00016L341.011 6C343.584 6.00289 346.051 7.02628 347.87 8.84565C349.69 10.665 350.713 13.1318 350.716 15.7048L350.716 293.147C350.713 295.72 349.69 298.187 347.871 300.006C346.051 301.825 343.584 302.849 341.011 302.852Z" fill="white"/>
</g>
<mask id="path-2-inside-1_81_3" fill="white">
<path d="M341.011 302.852L136.641 302.852C134.068 302.849 131.601 301.826 129.781 300.006C127.962 298.187 126.939 295.72 126.936 293.147L126.936 15.7049C126.938 13.132 127.962 10.6652 129.781 8.84583C131.601 7.02646 134.067 6.00306 136.64 6.00016L341.011 6C343.584 6.00289 346.051 7.02628 347.87 8.84565C349.69 10.665 350.713 13.1318 350.716 15.7048L350.716 293.147C350.713 295.72 349.69 298.187 347.871 300.006C346.051 301.825 343.584 302.849 341.011 302.852ZM136.64 7.1419C134.37 7.14447 132.193 8.04748 130.588 9.6528C128.983 11.2581 128.08 13.4347 128.077 15.7049L128.077 293.147C128.08 295.417 128.983 297.594 130.588 299.199C132.194 300.805 134.37 301.708 136.641 301.71L341.011 301.71C343.282 301.707 345.458 300.804 347.064 299.199C348.669 297.594 349.572 295.417 349.575 293.147L349.574 15.7048C349.572 13.4345 348.669 11.258 347.063 9.65263C345.458 8.04731 343.282 7.14431 341.011 7.14174L136.64 7.1419Z"/>
</mask>
<path d="M341.011 302.852L136.641 302.852C134.068 302.849 131.601 301.826 129.781 300.006C127.962 298.187 126.939 295.72 126.936 293.147L126.936 15.7049C126.938 13.132 127.962 10.6652 129.781 8.84583C131.601 7.02646 134.067 6.00306 136.64 6.00016L341.011 6C343.584 6.00289 346.051 7.02628 347.87 8.84565C349.69 10.665 350.713 13.1318 350.716 15.7048L350.716 293.147C350.713 295.72 349.69 298.187 347.871 300.006C346.051 301.825 343.584 302.849 341.011 302.852ZM136.64 7.1419C134.37 7.14447 132.193 8.04748 130.588 9.6528C128.983 11.2581 128.08 13.4347 128.077 15.7049L128.077 293.147C128.08 295.417 128.983 297.594 130.588 299.199C132.194 300.805 134.37 301.708 136.641 301.71L341.011 301.71C343.282 301.707 345.458 300.804 347.064 299.199C348.669 297.594 349.572 295.417 349.575 293.147L349.574 15.7048C349.572 13.4345 348.669 11.258 347.063 9.65263C345.458 8.04731 343.282 7.14431 341.011 7.14174L136.64 7.1419Z" fill="#CCCCCC"/>
<path d="M341.011 302.852L341.012 305.852L341.015 305.852L341.011 302.852ZM136.641 302.852L136.637 305.852L136.641 305.852L136.641 302.852ZM126.936 293.147L123.936 293.147L123.936 293.15L126.936 293.147ZM126.936 15.7049L123.936 15.7016L123.936 15.7049L126.936 15.7049ZM136.64 6.00016L136.64 3.00016L136.637 3.00016L136.64 6.00016ZM341.011 6L341.015 3L341.011 3L341.011 6ZM350.716 15.7048L353.716 15.7048L353.716 15.7014L350.716 15.7048ZM350.716 293.147L353.716 293.15L353.716 293.147L350.716 293.147ZM136.64 7.1419L136.64 4.1419L136.637 4.1419L136.64 7.1419ZM128.077 15.7049L125.077 15.7015L125.077 15.7049L128.077 15.7049ZM128.077 293.147L125.077 293.147L125.078 293.15L128.077 293.147ZM136.641 301.71L136.637 304.71L136.641 304.71L136.641 301.71ZM341.011 301.71L341.012 304.71L341.015 304.71L341.011 301.71ZM349.575 293.147L352.575 293.15L352.575 293.147L349.575 293.147ZM349.574 15.7048L352.574 15.7048L352.574 15.7014L349.574 15.7048ZM341.011 7.14174L341.015 4.14174L341.011 4.14174L341.011 7.14174ZM341.011 299.852L136.641 299.852L136.641 305.852L341.012 305.852L341.011 299.852ZM136.644 299.852C134.865 299.85 133.16 299.142 131.903 297.885L127.66 302.128C130.041 304.509 133.27 305.848 136.637 305.852L136.644 299.852ZM131.903 297.885C130.645 296.627 129.938 294.922 129.936 293.144L123.936 293.15C123.94 296.518 125.279 299.746 127.66 302.128L131.903 297.885ZM129.936 293.147L129.936 15.7049L123.936 15.7049L123.936 293.147L129.936 293.147ZM129.936 15.7083C129.938 13.9298 130.645 12.2247 131.903 10.9671L127.66 6.72451C125.279 9.10567 123.939 12.3341 123.936 15.7016L129.936 15.7083ZM131.903 10.9671C133.16 9.70956 134.865 9.00216 136.644 9.00016L136.637 3.00016C133.269 3.00395 130.041 4.34336 127.66 6.72451L131.903 10.9671ZM136.64 9.00016L341.011 9L341.011 3L136.64 3.00016L136.64 9.00016ZM341.008 9C342.786 9.002 344.491 9.70939 345.749 10.967L349.992 6.72433C347.611 4.34317 344.382 3.00379 341.015 3L341.008 9ZM345.749 10.967C347.007 12.2246 347.714 13.9297 347.716 15.7081L353.716 15.7014C353.712 12.3339 352.373 9.10546 349.992 6.72433L345.749 10.967ZM347.716 15.7048L347.716 293.147L353.716 293.147L353.716 15.7048L347.716 15.7048ZM347.716 293.144C347.714 294.922 347.007 296.627 345.749 297.885L349.992 302.127C352.373 299.746 353.712 296.518 353.716 293.15L347.716 293.144ZM345.749 297.885C344.492 299.142 342.787 299.85 341.008 299.852L341.015 305.852C344.382 305.848 347.611 304.508 349.992 302.127L345.749 297.885ZM136.637 4.1419C133.572 4.14538 130.634 5.36438 128.467 7.53148L132.709 11.7741C133.753 10.7306 135.168 10.1436 136.644 10.1419L136.637 4.1419ZM128.467 7.53148C126.3 9.6986 125.081 12.6368 125.077 15.7015L131.077 15.7083C131.079 14.2325 131.666 12.8177 132.709 11.7741L128.467 7.53148ZM125.077 15.7049L125.077 293.147L131.077 293.147L131.077 15.7049L125.077 15.7049ZM125.078 293.15C125.081 296.215 126.3 299.153 128.467 301.321L132.71 297.078C131.666 296.034 131.079 294.619 131.077 293.144L125.078 293.15ZM128.467 301.321C130.634 303.488 133.572 304.707 136.637 304.71L136.644 298.71C135.168 298.708 133.753 298.121 132.71 297.078L128.467 301.321ZM136.641 304.71L341.012 304.71L341.011 298.71L136.641 298.71L136.641 304.71ZM341.015 304.71C344.08 304.706 347.018 303.487 349.185 301.32L344.942 297.078C343.899 298.121 342.484 298.708 341.008 298.71L341.015 304.71ZM349.185 301.32C351.352 299.153 352.571 296.215 352.575 293.15L346.575 293.144C346.573 294.619 345.986 296.034 344.942 297.078L349.185 301.32ZM352.575 293.147L352.574 15.7048L346.574 15.7048L346.575 293.147L352.575 293.147ZM352.574 15.7014C352.571 12.6366 351.352 9.6984 349.185 7.53131L344.942 11.774C345.986 12.8175 346.573 14.2324 346.574 15.7082L352.574 15.7014ZM349.185 7.53131C347.018 5.36421 344.079 4.14521 341.015 4.14174L341.008 10.1417C342.484 10.1434 343.899 10.7304 344.942 11.774L349.185 7.53131ZM341.011 4.14174L136.64 4.1419L136.64 10.1419L341.011 10.1417L341.011 4.14174Z" fill="black" mask="url(#path-2-inside-1_81_3)"/>
<path d="M236.081 51.1599C236.081 58.6673 233.854 66.0061 229.684 72.2483C225.513 78.4905 219.584 83.3557 212.648 86.2287C205.713 89.1016 198.08 89.8533 190.717 88.3887C183.354 86.9241 176.591 83.3089 171.282 78.0004C165.974 72.6919 162.358 65.9284 160.894 58.5652C159.429 51.202 160.181 43.5699 163.054 36.634C165.927 29.698 170.792 23.7698 177.034 19.5989C183.276 15.428 190.615 13.2018 198.122 13.2018C208.189 13.2049 217.842 17.2051 224.959 24.3229C232.077 31.4408 236.077 41.0937 236.081 51.1599Z" fill="white"/>
<path d="M203.758 60.5457C203.343 84.822 167.233 84.8182 166.822 60.545C167.236 36.2695 203.347 36.2733 203.758 60.5457Z" fill="#223549"/>
<path d="M196.465 65.19L196.446 64.4998C201.202 65.1349 202.227 59.2397 197.43 61.4437L198.525 53.4413L199.209 53.535L198.277 60.3421C203.328 59.5902 201.46 65.8797 196.465 65.19Z" fill="#2F2E41"/>
<path d="M206.307 54.122H202.59V54.8121H206.307V54.122Z" fill="#2F2E41"/>
<path d="M194.574 54.122H190.857V54.8121H194.574V54.122Z" fill="#2F2E41"/>
<path d="M191.277 86.3669C192.001 81.4772 186.277 82.4434 183.247 82.3951C182.758 82.3966 182.276 82.5071 181.836 82.7185C181.395 82.9298 181.008 83.2368 180.701 83.617C180.394 83.9971 180.176 84.441 180.062 84.9161C179.949 85.3912 179.943 85.8857 180.045 86.3635C177.699 87.0883 175.528 88.2863 173.664 89.8832C181.519 92.6222 190.054 92.7167 197.968 90.1524C196.038 88.4199 193.755 87.1282 191.277 86.3669Z" fill="#2F2E41"/>
<path d="M176.607 51.8108C180.03 49.8328 184.181 51.3503 187.716 52.18C194.424 54.2419 203.83 51.6599 204.645 43.6696C205.494 36.2384 195.329 32.0968 192.08 39.4929L193.026 39.3693C182.488 23.7091 164.159 24.303 164.279 45.833C164.24 46.4982 165.275 46.4959 165.314 45.8326C164.926 33.1453 173.323 24.4726 185.192 32.6261C187.843 34.7013 190.18 37.1485 192.132 39.8918C193.368 41.2771 193.637 35.3111 199.553 36.8737C206.064 39.3962 203.939 48.7196 198.12 50.7664C190.929 54.4401 183.141 47.3172 176.085 50.9165C175.971 50.9882 175.89 51.1013 175.858 51.2318C175.826 51.3623 175.846 51.5001 175.914 51.6161C175.982 51.7321 176.092 51.8172 176.221 51.8535C176.351 51.8899 176.489 51.8746 176.607 51.8108Z" fill="#2F2E41"/>
<path d="M186.214 93.0441C176.412 93.0359 166.973 89.3329 159.78 82.6738C152.587 76.0147 148.168 66.8888 147.405 57.1162C146.642 47.3435 149.591 37.6424 155.663 29.9476C161.736 22.2528 170.486 17.1297 180.168 15.6003C189.85 14.0708 199.753 16.2472 207.902 21.6956C216.051 27.1439 221.847 35.4637 224.133 44.9956C226.42 54.5276 225.029 64.5712 220.239 73.1233C215.448 81.6755 207.61 88.1076 198.288 91.137C194.389 92.4049 190.314 93.0486 186.214 93.0441ZM186.214 17.1278C178.91 17.1268 171.77 19.2918 165.696 23.3492C159.623 27.4065 154.889 33.1738 152.093 39.9218C149.297 46.6697 148.566 54.0952 149.99 61.2591C151.415 68.4229 154.932 75.0034 160.097 80.1682C165.262 85.333 171.842 88.8502 179.006 90.2749C186.17 91.6996 193.595 90.9678 200.343 88.1722C207.091 85.3765 212.859 80.6425 216.916 74.5689C220.973 68.4953 223.138 61.3549 223.137 54.0507C223.126 44.2615 219.233 34.8765 212.311 27.9545C205.389 21.0325 196.004 17.1389 186.214 17.1278Z" fill="#CCCCCC"/>
<path d="M295.911 54.2811L238.081 54.2812C236.868 54.2812 235.704 53.7992 234.846 52.9412C233.988 52.0832 233.506 50.9195 233.506 49.7061C233.506 48.4928 233.988 47.3291 234.846 46.4711C235.704 45.6132 236.868 45.1311 238.081 45.1311L295.911 45.1311C297.125 45.1311 298.288 45.6131 299.146 46.4711C300.004 47.3291 300.486 48.4927 300.486 49.7061C300.486 50.9195 300.004 52.0831 299.146 52.9411C298.288 53.7991 297.125 54.2811 295.911 54.2811Z" fill="#223549"/>
<path d="M314.783 69.7218L238.082 69.7218C237.48 69.7226 236.885 69.6048 236.329 69.3752C235.773 69.1456 235.268 68.8087 234.843 68.3838C234.418 67.9589 234.08 67.4543 233.85 66.8989C233.619 66.3435 233.501 65.7481 233.501 65.1468C233.501 64.5455 233.619 63.9502 233.85 63.3947C234.08 62.8393 234.418 62.3347 234.843 61.9098C235.268 61.4849 235.773 61.148 236.329 60.9184C236.885 60.6888 237.48 60.5711 238.082 60.5718L314.783 60.5717C315.997 60.5717 317.161 61.0538 318.019 61.9117C318.876 62.7697 319.359 63.9334 319.359 65.1468C319.359 66.3601 318.876 67.5238 318.019 68.3818C317.161 69.2397 315.997 69.7218 314.783 69.7218Z" fill="#223549"/>
<path d="M307.735 126.052L163.704 126.052C162.492 126.051 161.33 125.568 160.473 124.71C159.616 123.853 159.135 122.69 159.135 121.477C159.135 120.265 159.616 119.102 160.473 118.244C161.33 117.387 162.492 116.904 163.704 116.902L307.735 116.902C308.949 116.902 310.112 117.384 310.97 118.242C311.828 119.1 312.31 120.264 312.31 121.477C312.31 122.691 311.828 123.854 310.97 124.712C310.112 125.57 308.949 126.052 307.735 126.052Z" fill="#E6E6E6"/>
<path d="M326.607 141.493L163.704 141.493C163.103 141.494 162.507 141.376 161.952 141.146C161.396 140.917 160.891 140.58 160.466 140.155C160.04 139.73 159.703 139.225 159.472 138.67C159.242 138.115 159.124 137.519 159.124 136.918C159.124 136.317 159.242 135.721 159.472 135.166C159.703 134.61 160.04 134.106 160.466 133.681C160.891 133.256 161.396 132.919 161.952 132.69C162.507 132.46 163.103 132.342 163.704 132.343L326.607 132.343C327.821 132.343 328.984 132.825 329.842 133.683C330.7 134.541 331.182 135.704 331.182 136.918C331.182 138.131 330.7 139.295 329.842 140.153C328.984 141.011 327.821 141.493 326.607 141.493Z" fill="#E6E6E6"/>
<path d="M307.735 176.981L163.704 176.982C162.492 176.98 161.33 176.497 160.473 175.64C159.616 174.782 159.135 173.619 159.135 172.407C159.135 171.194 159.616 170.031 160.473 169.173C161.33 168.316 162.492 167.833 163.704 167.831L307.735 167.831C308.949 167.831 310.112 168.313 310.97 169.171C311.828 170.029 312.31 171.193 312.31 172.406C312.31 173.62 311.828 174.783 310.97 175.641C310.112 176.499 308.949 176.981 307.735 176.981Z" fill="#E6E6E6"/>
<path d="M326.607 192.422L163.704 192.422C163.103 192.423 162.507 192.305 161.952 192.076C161.396 191.846 160.891 191.509 160.466 191.084C160.04 190.659 159.703 190.155 159.472 189.599C159.242 189.044 159.124 188.448 159.124 187.847C159.124 187.246 159.242 186.651 159.472 186.095C159.703 185.54 160.04 185.035 160.466 184.61C160.891 184.185 161.396 183.848 161.952 183.619C162.507 183.389 163.103 183.271 163.704 183.272L326.607 183.272C327.821 183.272 328.984 183.754 329.842 184.612C330.7 185.47 331.182 186.634 331.182 187.847C331.182 189.06 330.7 190.224 329.842 191.082C328.984 191.94 327.821 192.422 326.607 192.422Z" fill="#E6E6E6"/>
<path d="M307.735 227.911L163.704 227.911C162.491 227.911 161.327 227.429 160.469 226.571C159.611 225.713 159.129 224.549 159.129 223.336C159.129 222.122 159.611 220.959 160.469 220.101C161.327 219.243 162.491 218.761 163.704 218.761L307.735 218.761C308.949 218.761 310.113 219.243 310.97 220.101C311.828 220.959 312.31 222.122 312.31 223.336C312.31 224.549 311.828 225.713 310.97 226.571C310.113 227.429 308.949 227.911 307.735 227.911Z" fill="#E6E6E6"/>
<path d="M326.607 243.351L163.704 243.351C162.491 243.351 161.327 242.869 160.469 242.011C159.611 241.153 159.129 239.99 159.129 238.776C159.129 237.563 159.611 236.399 160.469 235.541C161.327 234.683 162.491 234.201 163.704 234.201L326.607 234.201C327.821 234.201 328.984 234.683 329.842 235.541C330.7 236.399 331.182 237.563 331.182 238.776C331.182 239.99 330.7 241.153 329.842 242.011C328.984 242.869 327.821 243.351 326.607 243.351Z" fill="#E6E6E6"/>
<g filter="url(#filter1_d_81_3)">
<path d="M224.076 395.496H19.7047C17.1318 395.493 14.665 394.47 12.8456 392.651C11.0263 390.831 10.0029 388.364 10 385.791V108.349C10.0029 105.776 11.0263 103.31 12.8456 101.49C14.665 99.6708 17.1318 98.6475 19.7047 98.6446H224.076C226.649 98.6475 229.115 99.6708 230.935 101.49C232.754 103.31 233.778 105.776 233.78 108.349V385.791C233.778 388.364 232.754 390.831 230.935 392.651C229.115 394.47 226.649 395.493 224.076 395.496Z" fill="white"/>
</g>
<path d="M36.7498 170.069C36.7432 175.065 37.7259 180.013 39.6413 184.628C41.5566 189.242 44.3667 193.431 47.9094 196.954C48.2063 197.247 48.51 197.541 48.817 197.827C50.6669 199.555 52.6854 201.094 54.8421 202.42C55.2561 202.675 55.6703 202.92 56.0947 203.158C58.2758 204.388 60.5738 205.397 62.9547 206.171C63.3653 206.306 63.7828 206.433 64.2004 206.551C71.7689 208.721 79.8239 208.495 87.2583 205.902C87.4033 205.85 87.5482 205.798 87.6897 205.747C94.216 203.372 99.9659 199.253 104.314 193.838C108.661 188.422 111.44 181.918 112.347 175.032C113.255 168.147 112.256 161.145 109.46 154.788C106.663 148.431 102.177 142.963 96.4886 138.979C90.8002 134.995 84.128 132.648 77.1981 132.193C70.2683 131.738 63.3464 133.193 57.186 136.399C51.0256 139.605 45.8627 144.439 42.2594 150.376C38.6561 156.313 36.7504 163.125 36.7498 170.069Z" fill="white"/>
<path d="M66.692 188.674C66.7103 191.615 65.6265 194.456 63.654 196.637C61.7022 198.779 58.7966 200.2 55.8645 199.612C53.1646 199.071 50.9706 196.711 51.2443 193.856C51.2897 193.238 51.4694 192.637 51.7709 192.095C52.0724 191.553 52.4884 191.084 52.99 190.719C53.4915 190.355 54.0665 190.104 54.6749 189.985C55.2832 189.865 55.9103 189.88 56.5125 190.028C59.0773 190.693 60.0992 194.39 57.962 196.125C57.4491 196.541 56.7123 195.813 57.2299 195.393C57.5491 195.101 57.79 194.733 57.9305 194.324C58.0709 193.915 58.1065 193.477 58.034 193.051C57.9615 192.625 57.7831 192.223 57.5153 191.884C57.2475 191.544 56.8987 191.277 56.501 191.107C56.0316 190.957 55.5342 190.915 55.0465 190.986C54.5587 191.056 54.0934 191.237 53.6857 191.513C53.2779 191.79 52.9385 192.156 52.6931 192.583C52.4477 193.011 52.3027 193.488 52.2692 193.98C52.0999 196.387 53.9435 198.199 56.2045 198.626C58.6503 199.087 61.0753 197.836 62.7326 196.108C64.632 194.101 65.68 191.437 65.6567 188.674C65.6612 188.54 65.7178 188.413 65.8144 188.319C65.9109 188.226 66.04 188.174 66.1744 188.174C66.3087 188.174 66.4378 188.226 66.5344 188.319C66.6309 188.413 66.6875 188.54 66.692 188.674Z" fill="#2F2E41"/>
<path d="M76.8006 195.255C87.0002 195.255 95.2687 186.987 95.2687 176.787C95.2687 166.587 87.0002 158.319 76.8006 158.319C66.601 158.319 58.3325 166.587 58.3325 176.787C58.3325 186.987 66.601 195.255 76.8006 195.255Z" fill="#223549"/>
<path d="M75.8556 184.667L75.8364 183.977C77.1203 183.941 78.2523 183.861 79.1028 183.239C79.344 183.053 79.5422 182.817 79.684 182.548C79.8258 182.278 79.9079 181.981 79.9246 181.677C79.9395 181.491 79.9114 181.304 79.8424 181.131C79.7734 180.958 79.6654 180.803 79.5268 180.678C79.2054 180.483 78.8375 180.379 78.4617 180.375C78.0859 180.372 77.7162 180.47 77.3915 180.659L76.8205 180.921L77.9155 172.919L78.5992 173.012L77.6678 179.819C78.0491 179.678 78.4597 179.634 78.8622 179.692C79.2648 179.75 79.6463 179.908 79.9723 180.151C80.1915 180.342 80.3636 180.582 80.4749 180.851C80.5863 181.12 80.634 181.411 80.6142 181.701C80.5941 182.11 80.4848 182.509 80.2941 182.871C80.1033 183.233 79.8357 183.549 79.5099 183.797C78.4171 184.595 76.9968 184.635 75.8556 184.667Z" fill="#2F2E41"/>
<path d="M85.6977 173.599H81.9807V174.289H85.6977V173.599Z" fill="#2F2E41"/>
<path d="M73.9653 173.599H70.2483V174.289H73.9653V173.599Z" fill="#2F2E41"/>
<path d="M64.2004 206.551C71.7689 208.721 79.8239 208.495 87.2584 205.902C87.4033 205.85 87.5482 205.798 87.6898 205.747C85.9379 204.395 83.9564 203.371 81.8407 202.724C81.9904 202.193 81.9879 201.631 81.8338 201.102C81.6244 200.431 81.2039 199.845 80.6351 199.433C80.0662 199.02 79.3792 198.802 78.6764 198.811H74.1766C73.475 198.801 72.7891 199.019 72.2213 199.431C71.6535 199.843 71.2342 200.428 71.0262 201.098C70.872 201.629 70.8696 202.192 71.0193 202.724C69.1556 203.294 67.3945 204.157 65.8017 205.281C65.4807 205.505 65.1702 205.74 64.8701 205.985C64.6423 206.168 64.418 206.357 64.2004 206.551Z" fill="#2F2E41"/>
<path d="M91.2681 174.828C91.2681 177.94 92.8002 180.522 94.7913 180.97C94.994 181.016 95.2012 181.039 95.409 181.039C97.6899 181.039 99.5499 178.254 99.5499 174.828C99.6014 173.061 99.0378 171.332 97.9556 169.935C97.619 169.527 97.2049 169.191 96.7374 168.944C96.3272 168.73 95.8716 168.618 95.409 168.617C94.7734 168.624 94.1565 168.832 93.6455 169.21C92.2411 170.204 91.2681 172.347 91.2681 174.828Z" fill="#3F3D56"/>
<path d="M54.3452 174.828C54.3452 177.506 55.4769 179.79 57.0643 180.663C57.4988 180.907 57.988 181.036 58.4861 181.039C58.5968 181.039 58.7075 181.032 58.8173 181.019C60.9429 180.767 62.627 178.089 62.627 174.828C62.627 172.216 61.5468 169.976 60.0216 169.062C59.5603 168.775 59.029 168.621 58.4861 168.617C58.0233 168.618 57.5677 168.73 57.1575 168.944C56.6887 169.192 56.2736 169.53 55.9359 169.938C54.8568 171.335 54.2947 173.063 54.3452 174.828Z" fill="#3F3D56"/>
<path d="M57.3226 180.068C57.4048 180.068 57.4858 180.048 57.5589 180.01C57.6319 179.973 57.6951 179.918 57.743 179.852C57.7909 179.785 57.8222 179.708 57.8344 179.627C57.8466 179.545 57.8393 179.462 57.8131 179.384C56.8239 176.443 56.5263 173.312 56.9435 170.237C57.3607 167.161 58.4815 164.223 60.2187 161.651C61.956 159.079 64.2629 156.943 66.9602 155.407C69.6574 153.872 72.6725 152.979 75.7709 152.798C78.8693 152.617 81.9677 153.154 84.8253 154.365C87.6828 155.576 90.2225 157.43 92.2471 159.783C94.2716 162.135 95.7265 164.923 96.4985 167.929C97.2706 170.935 97.339 174.079 96.6986 177.116C96.6706 177.25 96.697 177.39 96.7719 177.504C96.8469 177.619 96.9643 177.7 97.0985 177.728C97.2326 177.756 97.3725 177.73 97.4875 177.655C97.6024 177.581 97.683 177.463 97.7116 177.329C98.3854 174.136 98.3137 170.831 97.5023 167.67C96.6908 164.51 95.1614 161.578 93.0329 159.105C90.9044 156.631 88.2342 154.682 85.2297 153.408C82.2253 152.135 78.9676 151.571 75.7099 151.761C72.4522 151.951 69.2822 152.89 66.4463 154.505C63.6105 156.119 61.1852 158.366 59.3589 161.07C57.5326 163.775 56.3546 166.864 55.9164 170.098C55.4781 173.331 55.7915 176.622 56.8322 179.715C56.8668 179.818 56.9328 179.907 57.0207 179.97C57.1087 180.034 57.2143 180.068 57.3226 180.068Z" fill="#3F3D56"/>
<path d="M86.078 164.821C86.3844 165.322 86.5118 165.911 86.4391 166.493C86.3665 167.076 86.0982 167.616 85.6783 168.026C84.6757 169.145 83.0769 169.216 81.6887 169.008C80.1309 168.775 78.4786 168.045 76.9015 168.537C75.5573 168.956 74.5984 170.175 73.2019 170.482C71.9634 170.753 70.4824 170.394 70.0482 169.074C69.8396 168.439 70.839 168.167 71.0465 168.798C71.3274 169.652 72.5402 169.635 73.2348 169.399C74.3483 169.02 75.2064 168.098 76.3009 167.657C77.6056 167.253 79.0024 167.257 80.3049 167.668C81.5431 167.947 82.9681 168.36 84.2017 167.84C85.1144 167.454 85.8407 166.24 85.1842 165.344C84.79 164.806 85.6879 164.289 86.078 164.821Z" fill="#2F2E41"/>
<path d="M76.7984 210.291C73.1469 210.294 69.5131 209.783 66.0039 208.773C65.5916 208.657 65.1583 208.525 64.723 208.383C62.278 207.587 59.9178 206.551 57.6774 205.289C57.2571 205.053 56.8353 204.804 56.3893 204.529C54.1743 203.167 52.1011 201.586 50.2006 199.812C49.887 199.519 49.5763 199.219 49.2725 198.919C43.2956 192.96 39.4137 185.222 38.2101 176.868C37.0064 168.514 38.546 159.995 42.5975 152.591C46.649 145.187 52.9937 139.298 60.6784 135.807C68.363 132.317 76.9727 131.415 85.214 133.236C93.4553 135.057 100.883 139.503 106.382 145.906C111.881 152.309 115.153 160.324 115.708 168.746C116.262 177.168 114.069 185.542 109.458 192.611C104.846 199.68 98.0654 205.062 90.134 207.948C89.9916 208 89.8443 208.052 89.6969 208.105C85.5516 209.556 81.1905 210.295 76.7984 210.291ZM76.7984 134.374C69.4907 134.375 62.3474 136.544 56.273 140.606C50.1985 144.669 45.4661 150.442 42.675 157.196C39.8838 163.949 39.1594 171.379 40.5935 178.545C42.0275 185.711 45.5555 192.29 50.7308 197.449C51.0173 197.732 51.3138 198.018 51.6136 198.298C53.4136 199.979 55.3772 201.476 57.4749 202.766C57.8975 203.027 58.2951 203.261 58.6916 203.484C60.8136 204.679 63.049 205.661 65.3649 206.414C65.7747 206.549 66.1796 206.672 66.5708 206.782C73.9348 208.895 81.7725 208.675 89.0066 206.153L89.4248 206.002C97.5825 203.033 104.433 197.284 108.774 189.766C113.115 182.248 114.668 173.441 113.161 164.891C111.654 156.342 107.183 148.597 100.533 143.016C93.8831 137.435 85.4797 134.376 76.7984 134.374Z" fill="#CCCCCC"/>
<path d="M224.076 395.496H19.7047C17.1318 395.493 14.665 394.47 12.8456 392.651C11.0263 390.831 10.0029 388.364 10 385.791V108.349C10.0029 105.776 11.0263 103.31 12.8456 101.49C14.665 99.6708 17.1318 98.6475 19.7047 98.6446H224.076C226.649 98.6475 229.115 99.6708 230.935 101.49C232.754 103.31 233.778 105.776 233.78 108.349V385.791C233.778 388.364 232.754 390.831 230.935 392.651C229.115 394.47 226.649 395.493 224.076 395.496ZM19.7047 99.7863C17.4345 99.7889 15.258 100.692 13.6526 102.297C12.0473 103.903 11.1443 106.079 11.1417 108.349V385.791C11.1443 388.062 12.0473 390.238 13.6526 391.844C15.258 393.449 17.4345 394.352 19.7047 394.354H224.076C226.346 394.352 228.523 393.449 230.128 391.844C231.733 390.238 232.636 388.062 232.639 385.791V108.349C232.636 106.079 231.733 103.903 230.128 102.297C228.523 100.692 226.346 99.7889 224.076 99.7863H19.7047Z" fill="#3F3D56"/>
<path d="M184.512 170.702H126.682C125.469 170.702 124.305 170.22 123.447 169.362C122.589 168.504 122.107 167.34 122.107 166.127C122.107 164.914 122.589 163.75 123.447 162.892C124.305 162.034 125.469 161.552 126.682 161.552H184.512C185.725 161.552 186.889 162.034 187.747 162.892C188.605 163.75 189.087 164.914 189.087 166.127C189.087 167.34 188.605 168.504 187.747 169.362C186.889 170.22 185.725 170.702 184.512 170.702Z" fill="#223549"/>
<path d="M203.384 186.143H126.682C125.469 186.143 124.305 185.661 123.447 184.803C122.589 183.945 122.107 182.781 122.107 181.568C122.107 180.354 122.589 179.191 123.447 178.333C124.305 177.475 125.469 176.993 126.682 176.993H203.384C204.597 176.993 205.761 177.475 206.619 178.333C207.477 179.191 207.959 180.354 207.959 181.568C207.959 182.781 207.477 183.945 206.619 184.803C205.761 185.661 204.597 186.143 203.384 186.143Z" fill="#223549"/>
<path d="M184.428 245.364H40.3965C39.1832 245.364 38.0195 244.882 37.1615 244.024C36.3035 243.166 35.8215 242.002 35.8215 240.789C35.8215 239.575 36.3035 238.412 37.1615 237.554C38.0195 236.696 39.1832 236.214 40.3965 236.214H184.428C185.641 236.214 186.805 236.696 187.663 237.554C188.521 238.412 189.003 239.575 189.003 240.789C189.003 242.002 188.521 243.166 187.663 244.024C186.805 244.882 185.641 245.364 184.428 245.364Z" fill="#CCCCCC"/>
<path d="M203.3 260.804H40.3965C39.1832 260.804 38.0195 260.322 37.1615 259.464C36.3035 258.606 35.8215 257.443 35.8215 256.229C35.8215 255.016 36.3035 253.852 37.1615 252.994C38.0195 252.136 39.1832 251.654 40.3965 251.654H203.3C204.513 251.654 205.677 252.136 206.535 252.994C207.393 253.852 207.875 255.016 207.875 256.229C207.875 257.443 207.393 258.606 206.535 259.464C205.677 260.322 204.513 260.804 203.3 260.804Z" fill="#CCCCCC"/>
<path d="M184.428 296.293H40.3965C39.1841 296.292 38.0219 295.809 37.1651 294.951C36.3084 294.093 35.8271 292.93 35.8271 291.718C35.8271 290.506 36.3084 289.343 37.1651 288.485C38.0219 287.627 39.1841 287.144 40.3965 287.143H184.428C185.641 287.143 186.805 287.625 187.663 288.483C188.521 289.341 189.003 290.505 189.003 291.718C189.003 292.931 188.521 294.095 187.663 294.953C186.805 295.811 185.641 296.293 184.428 296.293Z" fill="#CCCCCC"/>
<path d="M203.3 311.734H40.3965C39.1841 311.732 38.0219 311.249 37.1651 310.392C36.3084 309.534 35.8271 308.371 35.8271 307.159C35.8271 305.946 36.3084 304.783 37.1651 303.926C38.0219 303.068 39.1841 302.585 40.3965 302.584H203.3C204.513 302.584 205.677 303.066 206.535 303.924C207.392 304.782 207.875 305.945 207.875 307.159C207.875 308.372 207.392 309.536 206.535 310.394C205.677 311.252 204.513 311.734 203.3 311.734Z" fill="#CCCCCC"/>
<path d="M184.428 347.222H40.3965C39.1832 347.222 38.0195 346.74 37.1615 345.882C36.3035 345.024 35.8215 343.861 35.8215 342.647C35.8215 341.434 36.3035 340.27 37.1615 339.412C38.0195 338.554 39.1832 338.072 40.3965 338.072H184.428C185.641 338.072 186.805 338.554 187.663 339.412C188.521 340.27 189.003 341.434 189.003 342.647C189.003 343.861 188.521 345.024 187.663 345.882C186.805 346.74 185.641 347.222 184.428 347.222Z" fill="#CCCCCC"/>
<path d="M203.3 362.663H40.3965C39.1832 362.663 38.0195 362.181 37.1615 361.323C36.3035 360.465 35.8215 359.301 35.8215 358.088C35.8215 356.874 36.3035 355.711 37.1615 354.853C38.0195 353.995 39.1832 353.513 40.3965 353.513H203.3C204.513 353.513 205.677 353.995 206.535 354.853C207.393 355.711 207.875 356.874 207.875 358.088C207.875 359.301 207.393 360.465 206.535 361.323C205.677 362.181 204.513 362.663 203.3 362.663Z" fill="#CCCCCC"/>
<path d="M221.704 332.32C215.781 332.314 209.914 333.475 204.439 335.737C198.965 337.999 193.99 341.318 189.799 345.505C185.608 349.691 182.283 354.662 180.014 360.134C177.746 365.606 176.578 371.472 176.578 377.396C176.578 383.319 177.746 389.185 180.014 394.657C182.283 400.129 185.607 405.1 189.798 409.287C193.989 413.473 198.964 416.792 204.439 419.054C209.913 421.317 215.78 422.478 221.704 422.471C233.645 422.45 245.09 417.692 253.526 409.241C261.962 400.79 266.7 389.337 266.7 377.396C266.7 365.455 261.962 354.002 253.526 345.551C245.09 337.1 233.645 332.341 221.704 332.32Z" fill="#223549"/>
<path d="M217.427 396.116C216.241 396.118 215.086 395.734 214.136 395.022L214.077 394.978L201.682 385.496C200.524 384.606 199.766 383.294 199.575 381.846C199.385 380.398 199.777 378.934 200.665 377.775C201.554 376.617 202.866 375.858 204.313 375.666C205.761 375.474 207.225 375.865 208.385 376.752L216.414 382.909L235.387 358.157C235.827 357.583 236.375 357.101 237.001 356.74C237.627 356.378 238.319 356.143 239.035 356.048C239.752 355.953 240.481 356.001 241.179 356.188C241.878 356.375 242.533 356.697 243.107 357.137L243.108 357.138L242.991 357.302L243.111 357.138C244.269 358.028 245.027 359.341 245.218 360.788C245.408 362.236 245.017 363.7 244.13 364.86L221.814 393.961C221.297 394.631 220.634 395.174 219.874 395.547C219.114 395.919 218.278 396.112 217.432 396.109L217.427 396.116Z" fill="white"/>
<g filter="url(#filter2_d_81_3)">
<path d="M367.033 406.713L162.662 406.713C160.089 406.71 157.622 405.687 155.803 403.867C153.983 402.048 152.96 399.581 152.957 397.008L152.957 119.566C152.96 116.993 153.983 114.526 155.802 112.707C157.622 110.888 160.089 109.864 162.662 109.861L367.032 109.861C369.605 109.864 372.072 110.887 373.892 112.707C375.711 114.526 376.734 116.993 376.737 119.566L376.738 397.008C376.735 399.581 375.711 402.048 373.892 403.867C372.072 405.686 369.606 406.71 367.033 406.713Z" fill="white"/>
<path d="M367.031 405.213L162.663 405.213C160.488 405.211 158.402 404.345 156.863 402.807C155.325 401.268 154.46 399.183 154.457 397.007C154.457 397.007 154.457 397.007 154.457 397.007L154.457 119.567C154.459 117.391 155.325 115.306 156.863 113.768C158.401 112.229 160.487 111.364 162.662 111.361C162.663 111.361 162.663 111.361 162.663 111.361L367.032 111.361C369.207 111.364 371.293 112.229 372.831 113.767C374.369 115.306 375.235 117.392 375.237 119.568L375.238 397.006C375.235 399.182 374.37 401.268 372.831 402.806C371.293 404.345 369.207 405.21 367.031 405.213Z" stroke="black" stroke-width="3"/>
</g>
<path d="M367.033 406.713L162.662 406.713C160.089 406.71 157.622 405.687 155.803 403.867C153.983 402.048 152.96 399.581 152.957 397.008L152.957 119.566C152.96 116.993 153.983 114.526 155.802 112.707C157.622 110.888 160.089 109.864 162.662 109.861L367.032 109.861C369.605 109.864 372.072 110.887 373.892 112.707C375.711 114.526 376.734 116.993 376.737 119.566L376.738 397.008C376.735 399.581 375.711 402.048 373.892 403.867C372.072 405.686 369.606 406.71 367.033 406.713ZM162.662 111.003C160.391 111.006 158.215 111.909 156.609 113.514C155.004 115.119 154.101 117.296 154.099 119.566L154.099 397.008C154.101 399.278 155.004 401.455 156.61 403.06C158.215 404.666 160.392 405.569 162.662 405.571L367.033 405.571C369.303 405.568 371.48 404.665 373.085 403.06C374.69 401.455 375.593 399.278 375.596 397.008L375.596 119.566C375.593 117.296 374.69 115.119 373.085 113.514C371.479 111.908 369.303 111.005 367.032 111.003L162.662 111.003Z" fill="#CCCCCC"/>
<path d="M255.73 181.688C255.73 189.195 253.504 196.534 249.333 202.776C245.162 209.019 239.234 213.884 232.298 216.757C225.362 219.63 217.73 220.381 210.367 218.917C203.003 217.452 196.24 213.837 190.931 208.529C185.623 203.22 182.008 196.457 180.543 189.093C179.078 181.73 179.83 174.098 182.703 167.162C185.576 160.226 190.441 154.298 196.683 150.127C202.926 145.956 210.264 143.73 217.772 143.73C227.838 143.733 237.491 147.733 244.609 154.851C251.727 161.969 255.727 171.622 255.73 181.688Z" fill="white"/>
<path d="M235.316 188.183C234.901 212.459 198.79 212.456 198.379 188.182C198.794 163.907 234.904 163.911 235.316 188.183Z" fill="#223549"/>
<path d="M216.114 195.718L216.095 195.028C220.852 195.663 221.876 189.768 217.079 191.972L218.174 183.969L218.858 184.063L217.927 190.87C222.977 190.118 221.109 196.408 216.114 195.718Z" fill="#2F2E41"/>
<path d="M225.956 184.65H222.24V185.34H225.956V184.65Z" fill="#2F2E41"/>
<path d="M214.224 184.65H210.507V185.34H214.224V184.65Z" fill="#2F2E41"/>
<path d="M222.834 214.004C223.559 209.115 217.834 210.081 214.804 210.032C214.316 210.034 213.834 210.144 213.393 210.356C212.953 210.567 212.565 210.874 212.259 211.254C211.952 211.634 211.734 212.078 211.62 212.553C211.507 213.029 211.5 213.523 211.602 214.001C209.257 214.726 207.086 215.924 205.222 217.521C213.077 220.26 221.612 220.354 229.525 217.79C227.596 216.057 225.313 214.766 222.834 214.004Z" fill="#2F2E41"/>
<path d="M208.165 179.448C211.588 177.47 215.738 178.988 219.274 179.817C225.981 181.879 235.387 179.297 236.203 171.307C237.052 163.876 226.886 159.734 223.637 167.13L224.583 167.007C214.046 151.346 195.716 151.94 195.837 173.47C195.798 174.135 196.833 174.133 196.872 173.47C196.484 160.783 204.88 152.11 216.75 160.263C219.401 162.339 221.738 164.786 223.689 167.529C224.926 168.914 225.194 162.948 231.11 164.511C237.622 167.034 235.497 176.357 229.677 178.404C222.487 182.077 214.699 174.955 207.642 178.554C207.529 178.626 207.448 178.739 207.416 178.869C207.384 179 207.404 179.137 207.472 179.253C207.539 179.369 207.65 179.455 207.779 179.491C207.908 179.527 208.047 179.512 208.165 179.448Z" fill="#2F2E41"/>
<path d="M217.772 220.681C207.97 220.673 198.531 216.97 191.337 210.311C184.144 203.652 179.725 194.526 178.963 184.753C178.2 174.981 181.148 165.28 187.221 157.585C193.293 149.89 202.043 144.767 211.726 143.238C221.408 141.708 231.311 143.885 239.46 149.333C247.609 154.781 253.404 163.101 255.691 172.633C257.977 182.165 256.587 192.209 251.796 200.761C247.006 209.313 239.168 215.745 229.845 218.774C225.947 220.042 221.872 220.686 217.772 220.681ZM217.772 144.765C210.468 144.764 203.327 146.929 197.254 150.986C191.18 155.044 186.446 160.811 183.651 167.559C180.855 174.307 180.123 181.733 181.548 188.896C182.973 196.06 186.49 202.641 191.655 207.806C196.819 212.97 203.4 216.487 210.564 217.912C217.728 219.337 225.153 218.605 231.901 215.809C238.649 213.014 244.416 208.28 248.474 202.206C252.531 196.133 254.696 188.992 254.695 181.688C254.684 171.899 250.79 162.514 243.868 155.592C236.946 148.67 227.561 144.776 217.772 144.765Z" fill="#CCCCCC"/>
<path d="M327.469 181.918L269.639 181.918C268.426 181.918 267.262 181.436 266.404 180.579C265.546 179.721 265.064 178.557 265.064 177.343C265.064 176.13 265.546 174.966 266.404 174.108C267.262 173.25 268.426 172.768 269.639 172.768L327.469 172.768C328.682 172.768 329.846 173.25 330.704 174.108C331.562 174.966 332.044 176.13 332.044 177.343C332.044 178.557 331.562 179.72 330.704 180.578C329.846 181.436 328.682 181.918 327.469 181.918Z" fill="#223549"/>
<path d="M346.341 197.359L269.639 197.359C269.038 197.36 268.442 197.242 267.887 197.013C267.331 196.783 266.826 196.446 266.401 196.021C265.975 195.596 265.638 195.092 265.407 194.536C265.177 193.981 265.059 193.385 265.059 192.784C265.059 192.183 265.177 191.587 265.407 191.032C265.638 190.477 265.975 189.972 266.401 189.547C266.826 189.122 267.331 188.785 267.887 188.556C268.442 188.326 269.038 188.208 269.639 188.209L346.341 188.209C347.554 188.209 348.718 188.691 349.576 189.549C350.434 190.407 350.916 191.571 350.916 192.784C350.916 193.997 350.434 195.161 349.576 196.019C348.718 196.877 347.554 197.359 346.341 197.359Z" fill="#223549"/>
<path d="M327.385 256.58L183.354 256.58C182.141 256.579 180.979 256.096 180.122 255.239C179.265 254.381 178.784 253.218 178.784 252.005C178.784 250.793 179.265 249.63 180.122 248.772C180.979 247.915 182.141 247.432 183.354 247.43L327.385 247.43C328.598 247.43 329.762 247.912 330.62 248.77C331.478 249.628 331.96 250.792 331.96 252.005C331.96 253.219 331.478 254.382 330.62 255.24C329.762 256.098 328.598 256.58 327.385 256.58Z" fill="#E6E6E6"/>
<path d="M346.257 272.021L183.354 272.021C182.752 272.022 182.157 271.904 181.601 271.674C181.045 271.445 180.54 271.108 180.115 270.683C179.689 270.258 179.352 269.754 179.122 269.198C178.891 268.643 178.773 268.047 178.773 267.446C178.773 266.845 178.891 266.249 179.122 265.694C179.352 265.139 179.689 264.634 180.115 264.209C180.54 263.784 181.045 263.447 181.601 263.218C182.157 262.988 182.752 262.87 183.354 262.871L346.257 262.871C347.47 262.871 348.634 263.353 349.492 264.211C350.35 265.069 350.832 266.233 350.832 267.446C350.832 268.659 350.35 269.823 349.492 270.681C348.634 271.539 347.47 272.021 346.257 272.021Z" fill="#E6E6E6"/>
<path d="M327.385 307.51L183.354 307.51C182.141 307.508 180.979 307.025 180.122 306.168C179.265 305.31 178.784 304.147 178.784 302.935C178.784 301.722 179.265 300.559 180.122 299.702C180.979 298.844 182.141 298.361 183.354 298.36L327.385 298.36C328.598 298.36 329.762 298.842 330.62 299.7C331.478 300.557 331.96 301.721 331.96 302.935C331.96 304.148 331.478 305.312 330.62 306.17C329.762 307.028 328.598 307.51 327.385 307.51Z" fill="#E6E6E6"/>
<path d="M346.257 322.95L183.354 322.95C182.752 322.951 182.157 322.833 181.601 322.604C181.045 322.374 180.54 322.037 180.115 321.612C179.689 321.187 179.352 320.683 179.122 320.127C178.891 319.572 178.773 318.977 178.773 318.375C178.773 317.774 178.891 317.179 179.122 316.623C179.352 316.068 179.689 315.563 180.115 315.138C180.54 314.713 181.045 314.377 181.601 314.147C182.157 313.917 182.752 313.8 183.354 313.8L346.257 313.8C347.47 313.8 348.634 314.282 349.492 315.14C350.35 315.998 350.832 317.162 350.832 318.375C350.832 319.589 350.35 320.752 349.492 321.61C348.634 322.468 347.47 322.95 346.257 322.95Z" fill="#E6E6E6"/>
<path d="M327.385 358.439L183.354 358.439C182.14 358.439 180.977 357.957 180.119 357.099C179.261 356.241 178.779 355.077 178.779 353.864C178.779 352.65 179.261 351.487 180.119 350.629C180.977 349.771 182.14 349.289 183.354 349.289L327.385 349.289C328.598 349.289 329.762 349.771 330.62 350.629C331.478 351.487 331.96 352.65 331.96 353.864C331.96 355.077 331.478 356.241 330.62 357.099C329.762 357.957 328.598 358.439 327.385 358.439Z" fill="#E6E6E6"/>
<path d="M346.257 373.879L183.354 373.879C182.14 373.879 180.977 373.397 180.119 372.539C179.261 371.681 178.779 370.518 178.779 369.304C178.779 368.091 179.261 366.927 180.119 366.069C180.977 365.211 182.14 364.729 183.354 364.729L346.257 364.729C347.47 364.729 348.634 365.211 349.492 366.069C350.35 366.927 350.832 368.091 350.832 369.304C350.832 370.518 350.35 371.681 349.492 372.539C348.634 373.397 347.47 373.879 346.257 373.879Z" fill="#E6E6E6"/>
<g filter="url(#filter3_d_81_3)">
<path d="M243.725 526.024H39.3542C36.7812 526.022 34.3144 524.998 32.4951 523.179C30.6757 521.359 29.6523 518.893 29.6494 516.32V238.877C29.6523 236.305 30.6757 233.838 32.4951 232.018C34.3144 230.199 36.7812 229.176 39.3542 229.173H243.725C246.298 229.176 248.765 230.199 250.584 232.018C252.404 233.838 253.427 236.305 253.43 238.877V516.32C253.427 518.893 252.404 521.359 250.584 523.179C248.765 524.998 246.298 526.022 243.725 526.024Z" fill="white"/>
<path d="M243.725 525.524H39.3547C36.9142 525.522 34.5744 524.551 32.8486 522.825C31.1229 521.099 30.1522 518.76 30.1494 516.319V238.878C30.1522 236.437 31.1229 234.098 32.8486 232.372C34.5743 230.646 36.914 229.676 39.3544 229.673H243.725C246.165 229.676 248.505 230.646 250.231 232.372C251.956 234.098 252.927 236.437 252.93 238.878V516.319C252.927 518.76 251.956 521.099 250.231 522.825C248.505 524.551 246.165 525.522 243.725 525.524Z" stroke="black"/>
</g>
<path d="M56.3992 300.597C56.3926 305.593 57.3753 310.541 59.2907 315.156C61.206 319.77 64.0162 323.959 67.5589 327.482C67.8557 327.776 68.1594 328.069 68.4664 328.355C70.3163 330.084 72.3348 331.622 74.4915 332.948C74.9055 333.204 75.3197 333.449 75.7441 333.687C77.9252 334.916 80.2232 335.925 82.6041 336.699C83.0147 336.834 83.4322 336.961 83.8498 337.079C91.4183 339.249 99.4733 339.023 106.908 336.43C107.053 336.378 107.198 336.326 107.339 336.275C113.865 333.9 119.615 329.781 123.963 324.366C128.311 318.95 131.089 312.446 131.997 305.561C132.904 298.675 131.905 291.673 129.109 285.316C126.313 278.959 121.826 273.491 116.138 269.507C110.45 265.523 103.777 263.176 96.8475 262.721C89.9177 262.266 82.9958 263.721 76.8354 266.927C70.675 270.133 65.5121 274.967 61.9088 280.904C58.3055 286.841 56.3998 293.653 56.3992 300.597Z" fill="white"/>
<path d="M86.3414 319.202C86.3598 322.143 85.2759 324.984 83.3034 327.165C81.3517 329.307 78.446 330.728 75.5139 330.14C72.814 329.599 70.62 327.239 70.8937 324.384C70.9391 323.766 71.1189 323.165 71.4203 322.623C71.7218 322.082 72.1379 321.612 72.6394 321.248C73.1409 320.883 73.7159 320.632 74.3243 320.513C74.9327 320.393 75.5597 320.408 76.1619 320.556C78.7267 321.221 79.7486 324.918 77.6114 326.653C77.0985 327.069 76.3617 326.341 76.8794 325.921C77.1986 325.629 77.4394 325.262 77.5799 324.853C77.7204 324.443 77.7559 324.006 77.6834 323.579C77.6109 323.153 77.4325 322.751 77.1647 322.412C76.8969 322.072 76.5481 321.805 76.1504 321.635C75.6811 321.485 75.1837 321.444 74.6959 321.514C74.2081 321.584 73.7428 321.765 73.3351 322.042C72.9273 322.318 72.5879 322.684 72.3425 323.112C72.0971 323.539 71.9521 324.017 71.9186 324.508C71.7493 326.915 73.5929 328.727 75.8539 329.154C78.2997 329.616 80.7247 328.364 82.382 326.636C84.2814 324.629 85.3295 321.965 85.3061 319.202C85.3106 319.068 85.3672 318.941 85.4638 318.847C85.5603 318.754 85.6894 318.702 85.8238 318.702C85.9581 318.702 86.0872 318.754 86.1838 318.847C86.2804 318.941 86.3369 319.068 86.3414 319.202Z" fill="#2F2E41"/>
<path d="M96.45 325.783C106.65 325.783 114.918 317.515 114.918 307.315C114.918 297.116 106.65 288.847 96.45 288.847C86.2504 288.847 77.9819 297.116 77.9819 307.315C77.9819 317.515 86.2504 325.783 96.45 325.783Z" fill="#223549"/>
<path d="M95.505 315.195L95.4858 314.505C96.7698 314.47 97.9017 314.389 98.7522 313.768C98.9934 313.581 99.1916 313.345 99.3334 313.076C99.4752 312.806 99.5573 312.509 99.574 312.205C99.589 312.019 99.5609 311.832 99.4919 311.659C99.4229 311.486 99.3148 311.331 99.1762 311.206C98.8548 311.011 98.4869 310.907 98.1111 310.903C97.7353 310.9 97.3657 310.998 97.0409 311.187L96.4699 311.449L97.5649 303.447L98.2487 303.54L97.3172 310.347C97.6985 310.206 98.1091 310.162 98.5116 310.22C98.9142 310.278 99.2958 310.436 99.6217 310.679C99.8409 310.87 100.013 311.11 100.124 311.379C100.236 311.648 100.283 311.939 100.264 312.229C100.244 312.638 100.134 313.037 99.9435 313.399C99.7527 313.761 99.4851 314.077 99.1594 314.325C98.0665 315.124 96.6462 315.163 95.505 315.195Z" fill="#2F2E41"/>
<path d="M105.347 304.127H101.63V304.818H105.347V304.127Z" fill="#2F2E41"/>
<path d="M93.6147 304.127H89.8977V304.818H93.6147V304.127Z" fill="#2F2E41"/>
<path d="M83.8496 337.079C91.4181 339.249 99.4731 339.023 106.908 336.43C107.053 336.378 107.197 336.326 107.339 336.275C105.587 334.923 103.606 333.899 101.49 333.252C101.64 332.721 101.637 332.159 101.483 331.63C101.274 330.959 100.853 330.374 100.284 329.961C99.7153 329.548 99.0284 329.33 98.3256 329.339H93.8258C93.1241 329.329 92.4382 329.547 91.8704 329.959C91.3026 330.371 90.8834 330.956 90.6753 331.627C90.5211 332.157 90.5188 332.72 90.6684 333.252C88.8048 333.822 87.0437 334.686 85.4509 335.809C85.1299 336.033 84.8193 336.268 84.5192 336.513C84.2914 336.696 84.0671 336.885 83.8496 337.079Z" fill="#2F2E41"/>
<path d="M110.917 305.356C110.917 308.469 112.45 311.05 114.441 311.498C114.643 311.544 114.851 311.567 115.058 311.567C117.339 311.567 119.199 308.783 119.199 305.356C119.251 303.59 118.687 301.86 117.605 300.463C117.268 300.055 116.854 299.719 116.387 299.473C115.977 299.258 115.521 299.146 115.058 299.145C114.423 299.153 113.806 299.36 113.295 299.738C111.891 300.732 110.917 302.875 110.917 305.356Z" fill="#3F3D56"/>
<path d="M73.9946 305.356C73.9946 308.034 75.1263 310.318 76.7137 311.191C77.1482 311.435 77.6374 311.564 78.1355 311.567C78.2462 311.567 78.3569 311.56 78.4667 311.547C80.5923 311.295 82.2764 308.617 82.2764 305.356C82.2764 302.744 81.1962 300.504 79.671 299.59C79.2097 299.303 78.6784 299.149 78.1355 299.145C77.6727 299.146 77.2171 299.258 76.8069 299.473C76.3381 299.72 75.923 300.058 75.5853 300.466C74.5062 301.864 73.9441 303.591 73.9946 305.356Z" fill="#3F3D56"/>
<path d="M76.972 310.596C77.0542 310.596 77.1352 310.576 77.2083 310.539C77.2814 310.501 77.3445 310.447 77.3924 310.38C77.4403 310.313 77.4716 310.236 77.4838 310.155C77.4961 310.073 77.4888 309.99 77.4626 309.913C76.4733 306.971 76.1757 303.84 76.5929 300.765C77.0101 297.689 78.1309 294.751 79.8681 292.18C81.6054 289.608 83.9123 287.471 86.6096 285.935C89.3069 284.4 92.3219 283.507 95.4203 283.326C98.5187 283.146 101.617 283.682 104.475 284.893C107.332 286.104 109.872 287.958 111.897 290.311C113.921 292.663 115.376 295.451 116.148 298.457C116.92 301.463 116.988 304.607 116.348 307.644C116.32 307.778 116.346 307.918 116.421 308.033C116.496 308.147 116.614 308.228 116.748 308.256C116.882 308.284 117.022 308.258 117.137 308.184C117.252 308.109 117.332 307.992 117.361 307.857C118.035 304.665 117.963 301.359 117.152 298.198C116.34 295.038 114.811 292.107 112.682 289.633C110.554 287.16 107.884 285.21 104.879 283.937C101.875 282.663 98.617 282.099 95.3593 282.289C92.1016 282.479 88.9316 283.418 86.0957 285.033C83.2599 286.647 80.8346 288.894 79.0083 291.599C77.182 294.303 76.004 297.392 75.5658 300.626C75.1276 303.859 75.4409 307.151 76.4816 310.243C76.5162 310.346 76.5822 310.435 76.6702 310.499C76.7581 310.562 76.8637 310.596 76.972 310.596Z" fill="#3F3D56"/>
<path d="M105.727 295.35C106.034 295.85 106.161 296.439 106.089 297.022C106.016 297.604 105.748 298.144 105.328 298.554C104.325 299.674 102.726 299.744 101.338 299.536C99.7803 299.303 98.128 298.573 96.5509 299.065C95.2067 299.484 94.2478 300.704 92.8513 301.01C91.6128 301.281 90.1318 300.922 89.6977 299.602C89.489 298.968 90.4884 298.696 90.6959 299.327C90.9768 300.181 92.1896 300.164 92.8842 299.927C93.9977 299.548 94.8559 298.626 95.9503 298.185C97.255 297.781 98.6519 297.785 99.9543 298.196C101.193 298.475 102.618 298.889 103.851 298.368C104.764 297.982 105.49 296.768 104.834 295.872C104.439 295.334 105.337 294.817 105.727 295.35Z" fill="#2F2E41"/>
<path d="M94.3573 339.591C90.7057 339.594 87.0719 339.083 83.5627 338.073C83.1504 337.957 82.7171 337.826 82.2819 337.683C79.8368 336.887 77.4767 335.851 75.2362 334.589C74.816 334.353 74.3941 334.104 73.9481 333.829C71.7332 332.467 69.66 330.886 67.7594 329.112C67.4459 328.819 67.1352 328.519 66.8314 328.219C60.8545 322.26 56.9726 314.522 55.7689 306.168C54.5653 297.814 56.1049 289.295 60.1564 281.891C64.2079 274.487 70.5525 268.598 78.2372 265.108C85.9219 261.617 94.5315 260.715 102.773 262.536C111.014 264.357 118.442 268.803 123.941 275.206C129.439 281.609 132.712 289.624 133.266 298.046C133.821 306.468 131.628 314.842 127.016 321.911C122.405 328.98 115.624 334.362 107.693 337.248C107.55 337.3 107.403 337.352 107.256 337.405C103.11 338.856 98.7493 339.596 94.3573 339.591ZM94.3573 263.675C87.0495 263.675 79.9062 265.844 73.8318 269.906C67.7574 273.969 63.025 279.742 60.2338 286.496C57.4426 293.25 56.7182 300.68 58.1523 307.845C59.5863 315.011 63.1144 321.59 68.2897 326.749C68.5761 327.032 68.8727 327.318 69.1725 327.598C70.9725 329.279 72.936 330.776 75.0337 332.066C75.4563 332.327 75.8539 332.561 76.2504 332.784C78.3724 333.979 80.6078 334.961 82.9238 335.715C83.3335 335.849 83.7384 335.972 84.1296 336.082C91.4936 338.195 99.3314 337.975 106.565 335.453L106.984 335.302C115.141 332.333 121.992 326.584 126.333 319.066C130.673 311.548 132.227 302.741 130.72 294.192C129.212 285.642 124.741 277.897 118.092 272.316C111.442 266.735 103.039 263.676 94.3573 263.675Z" fill="#CCCCCC"/>
<path d="M243.725 526.024H39.3542C36.7812 526.022 34.3144 524.998 32.4951 523.179C30.6757 521.359 29.6523 518.893 29.6494 516.32V238.877C29.6523 236.305 30.6757 233.838 32.4951 232.018C34.3144 230.199 36.7812 229.176 39.3542 229.173H243.725C246.298 229.176 248.765 230.199 250.584 232.018C252.404 233.838 253.427 236.305 253.43 238.877V516.32C253.427 518.893 252.404 521.359 250.584 523.179C248.765 524.998 246.298 526.022 243.725 526.024ZM39.3542 230.314C37.0839 230.317 34.9074 231.22 33.302 232.825C31.6967 234.431 30.7937 236.607 30.7912 238.877V516.32C30.7937 518.59 31.6967 520.766 33.302 522.372C34.9074 523.977 37.0839 524.88 39.3542 524.883H243.725C245.995 524.88 248.172 523.977 249.777 522.372C251.383 520.766 252.286 518.59 252.288 516.32V238.877C252.286 236.607 251.383 234.431 249.777 232.825C248.172 231.22 245.995 230.317 243.725 230.314H39.3542Z" fill="#3F3D56"/>
<path d="M204.161 301.23H146.331C145.118 301.23 143.954 300.748 143.096 299.89C142.238 299.032 141.756 297.868 141.756 296.655C141.756 295.442 142.238 294.278 143.096 293.42C143.954 292.562 145.118 292.08 146.331 292.08H204.161C205.375 292.08 206.538 292.562 207.396 293.42C208.254 294.278 208.736 295.442 208.736 296.655C208.736 297.868 208.254 299.032 207.396 299.89C206.538 300.748 205.375 301.23 204.161 301.23Z" fill="#223549"/>
<path d="M223.033 316.671H146.331C145.118 316.671 143.954 316.189 143.096 315.331C142.238 314.473 141.756 313.309 141.756 312.096C141.756 310.882 142.238 309.719 143.096 308.861C143.954 308.003 145.118 307.521 146.331 307.521H223.033C224.247 307.521 225.41 308.003 226.268 308.861C227.126 309.719 227.608 310.882 227.608 312.096C227.608 313.309 227.126 314.473 226.268 315.331C225.41 316.189 224.247 316.671 223.033 316.671Z" fill="#223549"/>
<path d="M204.077 375.892H60.0459C58.8326 375.892 57.6689 375.41 56.8109 374.552C55.953 373.694 55.4709 372.53 55.4709 371.317C55.4709 370.104 55.953 368.94 56.8109 368.082C57.6689 367.224 58.8326 366.742 60.0459 366.742H204.077C205.29 366.742 206.454 367.224 207.312 368.082C208.17 368.94 208.652 370.104 208.652 371.317C208.652 372.53 208.17 373.694 207.312 374.552C206.454 375.41 205.29 375.892 204.077 375.892Z" fill="#CCCCCC"/>
<path d="M222.949 391.333H60.0459C58.8326 391.333 57.6689 390.851 56.8109 389.993C55.953 389.135 55.4709 387.971 55.4709 386.758C55.4709 385.544 55.953 384.381 56.8109 383.523C57.6689 382.665 58.8326 382.183 60.0459 382.183H222.949C224.162 382.183 225.326 382.665 226.184 383.523C227.042 384.381 227.524 385.544 227.524 386.758C227.524 387.971 227.042 389.135 226.184 389.993C225.326 390.851 224.162 391.333 222.949 391.333Z" fill="#CCCCCC"/>
<path d="M204.077 426.821H60.0459C58.8335 426.82 57.6713 426.337 56.8145 425.479C55.9578 424.621 55.4766 423.459 55.4766 422.246C55.4766 421.034 55.9578 419.871 56.8145 419.013C57.6713 418.155 58.8335 417.673 60.0459 417.671H204.077C205.29 417.671 206.454 418.153 207.312 419.011C208.17 419.869 208.652 421.033 208.652 422.246C208.652 423.459 208.17 424.623 207.312 425.481C206.454 426.339 205.29 426.821 204.077 426.821Z" fill="#CCCCCC"/>
<path d="M222.949 442.262H60.0459C58.8335 442.26 57.6713 441.778 56.8145 440.92C55.9578 440.062 55.4766 438.899 55.4766 437.687C55.4766 436.474 55.9578 435.312 56.8145 434.454C57.6713 433.596 58.8335 433.113 60.0459 433.112H222.949C224.162 433.112 225.326 433.594 226.184 434.452C227.042 435.31 227.524 436.473 227.524 437.687C227.524 438.9 227.042 440.064 226.184 440.922C225.326 441.78 224.162 442.262 222.949 442.262Z" fill="#CCCCCC"/>
<path d="M204.077 477.75H60.0459C58.8326 477.75 57.6689 477.268 56.8109 476.41C55.953 475.552 55.4709 474.389 55.4709 473.175C55.4709 471.962 55.953 470.798 56.8109 469.94C57.6689 469.082 58.8326 468.6 60.0459 468.6H204.077C205.29 468.6 206.454 469.082 207.312 469.94C208.17 470.798 208.652 471.962 208.652 473.175C208.652 474.389 208.17 475.552 207.312 476.41C206.454 477.268 205.29 477.75 204.077 477.75Z" fill="#CCCCCC"/>
<path d="M222.949 493.191H60.0459C58.8326 493.191 57.6689 492.709 56.8109 491.851C55.953 490.993 55.4709 489.829 55.4709 488.616C55.4709 487.403 55.953 486.239 56.8109 485.381C57.6689 484.523 58.8326 484.041 60.0459 484.041H222.949C224.162 484.041 225.326 484.523 226.184 485.381C227.042 486.239 227.524 487.403 227.524 488.616C227.524 489.829 227.042 490.993 226.184 491.851C225.326 492.709 224.162 493.191 222.949 493.191Z" fill="#CCCCCC"/>
<g filter="url(#filter4_d_81_3)">
<path d="M287.151 392.672C281.227 392.665 275.36 393.826 269.886 396.089C264.411 398.351 259.436 401.67 255.245 405.856C251.054 410.043 247.729 415.014 245.461 420.486C243.193 425.958 242.025 431.824 242.025 437.747C242.025 443.671 243.192 449.537 245.461 455.009C247.729 460.481 251.054 465.452 255.245 469.638C259.436 473.825 264.411 477.144 269.885 479.406C275.36 481.668 281.227 482.83 287.15 482.823C299.091 482.802 310.536 478.044 318.973 469.593C327.409 461.142 332.147 449.689 332.147 437.748C332.147 425.807 327.409 414.353 318.973 405.902C310.536 397.452 299.092 392.693 287.151 392.672Z" fill="#223549"/>
</g>
<path d="M282.172 457.871C280.985 457.873 279.83 457.489 278.881 456.777L278.822 456.733L266.426 447.251C265.268 446.362 264.511 445.049 264.32 443.601C264.13 442.154 264.522 440.689 265.41 439.531C266.298 438.372 267.61 437.613 269.058 437.421C270.505 437.229 271.97 437.62 273.129 438.508L281.158 444.664L300.131 419.912C300.571 419.338 301.12 418.857 301.746 418.495C302.372 418.133 303.063 417.898 303.78 417.803C304.497 417.709 305.225 417.756 305.924 417.943C306.622 418.13 307.277 418.452 307.851 418.892L307.853 418.894L307.735 419.057L307.856 418.894C309.014 419.783 309.771 421.096 309.962 422.544C310.153 423.991 309.762 425.456 308.874 426.615L286.558 455.716C286.042 456.387 285.378 456.929 284.618 457.302C283.858 457.674 283.023 457.867 282.177 457.864L282.172 457.871Z" fill="white"/>
<defs>
<filter id="filter0_d_81_3" x="116.936" y="0" width="243.781" height="316.852" filterUnits="userSpaceOnUse" color-interpolation-filters="sRGB">
<feFlood flood-opacity="0" result="BackgroundImageFix"/>
<feColorMatrix in="SourceAlpha" type="matrix" values="0 0 0 0 0 0 0 0 0 0 0 0 0 0 0 0 0 0 127 0" result="hardAlpha"/>
<feOffset dy="4"/>
<feGaussianBlur stdDeviation="5"/>
<feComposite in2="hardAlpha" operator="out"/>
<feColorMatrix type="matrix" values="0 0 0 0 0 0 0 0 0 0 0 0 0 0 0 0 0 0 0.25 0"/>
<feBlend mode="normal" in2="BackgroundImageFix" result="effect1_dropShadow_81_3"/>
<feBlend mode="normal" in="SourceGraphic" in2="effect1_dropShadow_81_3" result="shape"/>
</filter>
<filter id="filter1_d_81_3" x="0" y="92.6446" width="243.781" height="316.852" filterUnits="userSpaceOnUse" color-interpolation-filters="sRGB">
<feFlood flood-opacity="0" result="BackgroundImageFix"/>
<feColorMatrix in="SourceAlpha" type="matrix" values="0 0 0 0 0 0 0 0 0 0 0 0 0 0 0 0 0 0 127 0" result="hardAlpha"/>
<feOffset dy="4"/>
<feGaussianBlur stdDeviation="5"/>
<feComposite in2="hardAlpha" operator="out"/>
<feColorMatrix type="matrix" values="0 0 0 0 0 0 0 0 0 0 0 0 0 0 0 0 0 0 0.25 0"/>
<feBlend mode="normal" in2="BackgroundImageFix" result="effect1_dropShadow_81_3"/>
<feBlend mode="normal" in="SourceGraphic" in2="effect1_dropShadow_81_3" result="shape"/>
</filter>
<filter id="filter2_d_81_3" x="142.957" y="103.861" width="243.781" height="316.852" filterUnits="userSpaceOnUse" color-interpolation-filters="sRGB">
<feFlood flood-opacity="0" result="BackgroundImageFix"/>
<feColorMatrix in="SourceAlpha" type="matrix" values="0 0 0 0 0 0 0 0 0 0 0 0 0 0 0 0 0 0 127 0" result="hardAlpha"/>
<feOffset dy="4"/>
<feGaussianBlur stdDeviation="5"/>
<feComposite in2="hardAlpha" operator="out"/>
<feColorMatrix type="matrix" values="0 0 0 0 0 0 0 0 0 0 0 0 0 0 0 0 0 0 0.25 0"/>
<feBlend mode="normal" in2="BackgroundImageFix" result="effect1_dropShadow_81_3"/>
<feBlend mode="normal" in="SourceGraphic" in2="effect1_dropShadow_81_3" result="shape"/>
</filter>
<filter id="filter3_d_81_3" x="19.5494" y="223.073" width="243.98" height="317.052" filterUnits="userSpaceOnUse" color-interpolation-filters="sRGB">
<feFlood flood-opacity="0" result="BackgroundImageFix"/>
<feColorMatrix in="SourceAlpha" type="matrix" values="0 0 0 0 0 0 0 0 0 0 0 0 0 0 0 0 0 0 127 0" result="hardAlpha"/>
<feOffset dy="4"/>
<feGaussianBlur stdDeviation="5.05"/>
<feComposite in2="hardAlpha" operator="out"/>
<feColorMatrix type="matrix" values="0 0 0 0 0 0 0 0 0 0 0 0 0 0 0 0 0 0 0.25 0"/>
<feBlend mode="normal" in2="BackgroundImageFix" result="effect1_dropShadow_81_3"/>
<feBlend mode="normal" in="SourceGraphic" in2="effect1_dropShadow_81_3" result="shape"/>
</filter>
<filter id="filter4_d_81_3" x="232.025" y="386.672" width="110.122" height="110.151" filterUnits="userSpaceOnUse" color-interpolation-filters="sRGB">
<feFlood flood-opacity="0" result="BackgroundImageFix"/>
<feColorMatrix in="SourceAlpha" type="matrix" values="0 0 0 0 0 0 0 0 0 0 0 0 0 0 0 0 0 0 127 0" result="hardAlpha"/>
<feOffset dy="4"/>
<feGaussianBlur stdDeviation="5"/>
<feComposite in2="hardAlpha" operator="out"/>
<feColorMatrix type="matrix" values="0 0 0 0 0 0 0 0 0 0 0 0 0 0 0 0 0 0 0.25 0"/>
<feBlend mode="normal" in2="BackgroundImageFix" result="effect1_dropShadow_81_3"/>
<feBlend mode="normal" in="SourceGraphic" in2="effect1_dropShadow_81_3" result="shape"/>
</filter>
</defs>
</svg>
