<svg width="578" height="576" viewBox="0 0 578 576" fill="none" xmlns="http://www.w3.org/2000/svg">
<path d="M259.825 493.09L269.325 426.09L268.325 494.09C262.825 493.59 261.325 493.39 259.825 493.09Z" fill="#223549" stroke="#223549"/>
<path d="M288.825 531.09L282.325 522.59L282.825 414.09C275.625 402.09 255.325 380.757 246.325 371.59V285.09C269.125 295.09 281.159 321.923 284.325 334.09V431.09H293.325V372.59C299.325 339.39 321.492 322.757 331.825 318.59V372.59C314.625 385.79 299.992 405.757 294.825 414.09L295.325 522.59L288.825 531.09Z" fill="#223549" stroke="#223549"/>
<path d="M330.825 305.09C311.225 312.69 297.325 333.59 292.825 343.09L293.325 213.09C293.159 211.923 292.025 209.49 288.825 209.09C285.625 208.69 284.159 211.59 283.825 213.09V305.09C270.849 284.29 254.752 274.423 248.325 272.09C247.125 254.09 274.825 197.59 288.825 171.59C311.625 214.79 323.658 243.923 326.825 253.09C313.825 260.59 309.325 264.59 311.825 272.09C313.825 278.09 324.325 270.257 329.325 265.59C330.925 273.59 330.992 295.257 330.825 305.09Z" fill="#223549" stroke="#223549"/>
<path d="M317.325 427.09H308.325V500.09C397.525 566.49 447.159 512.09 460.825 476.59C398.025 516.19 338.992 460.09 317.325 427.09Z" fill="#223549" stroke="#223549"/>
<path d="M401.136 460.494C442.573 433.585 473.417 393.256 488.27 346.569C503.122 299.882 501.036 249.811 482.377 205.124C463.718 160.436 429.674 123.979 386.206 102.136C342.739 80.2931 292.617 74.4557 244.617 85.646C196.618 96.8362 153.798 124.341 123.656 163.345C93.5135 202.349 77.9693 250.366 79.7448 298.99C81.5202 347.614 100.502 393.745 133.367 429.308C166.232 464.871 210.886 487.598 259.51 493.511L269.153 425.797C236.517 421.828 206.546 406.574 184.487 382.704C162.428 358.835 149.687 327.871 148.496 295.235C147.304 262.599 157.737 230.37 177.968 204.191C198.2 178.012 226.94 159.55 259.157 152.04C291.375 144.529 325.016 148.447 354.191 163.108C383.366 177.769 406.216 202.238 418.741 232.233C431.265 262.227 432.665 295.834 422.696 327.17C412.727 358.506 392.024 385.575 364.212 403.636L401.136 460.494Z" fill="#223549"/>
<path d="M343.325 416.59C374.925 455.79 394.825 461.923 400.825 460.09L364.325 404.09C356.325 410.49 346.992 415.09 343.325 416.59Z" fill="#223549" stroke="#223549"/>
</svg>
