<svg width="386" height="388" viewBox="0 0 386 388" fill="none" xmlns="http://www.w3.org/2000/svg">
<circle cx="194" cy="196" r="192" fill="white"/>
<path d="M173.468 329.361L179.811 284.629L179.143 330.029C175.471 329.695 174.469 329.561 173.468 329.361Z" fill="#223549" stroke="#223549"/>
<path d="M192.83 354.731L188.49 349.056L188.824 276.618C184.017 268.606 170.464 254.363 164.455 248.243V190.493C179.677 197.169 187.711 215.084 189.825 223.207V287.967H195.834V248.911C199.84 226.745 214.639 215.64 221.538 212.859V248.911C210.054 257.724 200.285 271.054 196.835 276.618L197.169 349.056L192.83 354.731Z" fill="#223549" stroke="#223549"/>
<path d="M220.87 203.845C207.785 208.919 198.504 222.873 195.5 229.216L195.834 142.423C195.723 141.644 194.966 140.02 192.83 139.753C190.693 139.486 189.714 141.422 189.491 142.423V203.845C180.828 189.959 170.081 183.371 165.79 181.814C164.989 169.796 183.483 132.075 192.83 114.716C208.052 143.558 216.085 163.008 218.2 169.128C209.52 174.136 206.516 176.806 208.185 181.814C209.52 185.819 216.531 180.59 219.869 177.474C220.937 182.815 220.981 197.28 220.87 203.845Z" fill="#223549" stroke="#223549"/>
<path d="M211.857 285.297H205.848V334.034C265.401 378.365 298.538 342.046 307.663 318.345C265.735 344.783 226.322 307.329 211.857 285.297Z" fill="#223549" stroke="#223549"/>
<path d="M267.812 307.599C295.477 289.633 316.07 262.709 325.986 231.539C335.902 200.369 334.509 166.94 322.051 137.105C309.594 107.27 286.865 82.9301 257.845 68.3469C228.824 53.7636 195.361 49.8664 163.315 57.3374C131.269 64.8084 102.681 83.1715 82.5569 109.212C62.4329 135.252 52.0551 167.31 53.2404 199.773C54.4258 232.236 67.0988 263.035 89.0406 286.778C110.982 310.521 140.795 325.694 173.258 329.642L179.696 284.434C157.907 281.784 137.897 271.6 123.17 255.663C108.442 239.727 99.9364 219.055 99.1408 197.266C98.3452 175.477 105.311 153.96 118.818 136.482C132.325 119.004 151.513 106.678 173.022 101.664C194.532 96.6495 216.992 99.2653 236.47 109.054C255.949 118.842 271.204 135.178 279.566 155.204C287.927 175.229 288.862 197.666 282.206 218.587C275.551 239.508 261.729 257.58 243.16 269.638L267.812 307.599Z" fill="#223549"/>
<path d="M229.216 278.287C250.313 304.458 263.599 308.553 267.605 307.329L243.236 269.941C237.895 274.214 231.664 277.285 229.216 278.287Z" fill="#223549" stroke="#223549"/>
</svg>
